<svg width="80" height="80" viewBox="0 0 80 80" fill="none" xmlns="http://www.w3.org/2000/svg">
<path d="M57.7519 13.2282L79.9953 23.9153V11.2941C79.9953 5.05883 74.9368 0 68.7018 0H11.2935C5.05853 0 0 5.05883 0 11.2941V46.9647L46.3361 14.1882C49.6818 11.8212 54.0533 11.4541 57.7472 13.2282H57.7519Z" fill="#365477"/>
<path d="M58.693 34.8752L79.9953 45.1105V31.4447L55.752 19.8023C53.2863 18.6211 50.3782 18.8658 48.143 20.4423L0 54.4941V68.7059C0 68.8941 0.0188224 69.0729 0.0282336 69.2611L47.2772 35.8352C50.6229 33.4682 54.9944 33.1011 58.6883 34.8752H58.693Z" fill="#FF6C6C"/>
<path d="M59.6341 56.5223L79.9953 66.3059V52.64L56.6931 41.4494C54.2274 40.2682 51.3193 40.5129 49.0841 42.0894L2.13638 75.2988C4.18802 78.1412 7.51954 80 11.2934 80H16.3896L48.223 57.4823C51.5687 55.1153 55.9402 54.7482 59.6341 56.5223Z" fill="#FFCD69"/>
<path d="M50.03 63.7317L27.0337 80H68.7019C73.2804 80 77.2143 77.2706 78.9883 73.3506L57.6343 63.0964C55.1685 61.9153 52.2605 62.16 50.0253 63.7364L50.03 63.7317Z" fill="#85FF85"/>
</svg>
